<svg width="56" height="46" viewBox="0 0 56 46" fill="none" xmlns="http://www.w3.org/2000/svg">
<g clip-path="url(#clip0_56_5550)">
<path d="M55.2245 8.36364H36.1676V3.76768C36.1676 1.69192 34.4697 0 32.3866 0H23.6083C21.5303 0 19.8324 1.69192 19.8324 3.76768V8.35859H0.775455C0.349715 8.35859 0 8.70202 0 9.13131V25.6919C0 26.2576 0.223007 26.8232 0.628473 27.2576L0.714635 27.3535V45.2222C0.714635 45.6465 1.05928 45.9949 1.48502 45.9949H54.5099C54.9407 45.9949 55.2854 45.6465 55.2854 45.2222V27.3535L55.3665 27.2576C55.7719 26.8232 56 26.2576 56 25.6919V9.13636C56 8.70707 55.6503 8.36364 55.2245 8.36364ZM21.3782 3.76768C21.3782 2.5404 22.3818 1.54545 23.6083 1.54545H32.3866C33.6182 1.54545 34.6167 2.53535 34.6167 3.76768V8.35859H21.3782V3.76768ZM53.7395 44.4495H2.26048V28.0303H14.3687L14.4295 28.2677C14.8908 30.101 16.538 31.3838 18.4386 31.3838C20.3392 31.3838 21.9814 30.1061 22.4476 28.2677L22.5034 28.0303H33.4915L33.5473 28.2677C34.0085 30.101 35.6557 31.3838 37.5563 31.3838C39.457 31.3838 41.0991 30.1061 41.5654 28.2677L41.6211 28.0303H53.7395V44.4495ZM15.8487 27.2677C15.8487 27.1263 15.8588 26.9848 15.8842 26.8535C16.0767 25.6162 17.1816 24.6818 18.4386 24.6818C19.6955 24.6818 20.7954 25.6162 20.993 26.8535C21.0133 26.9848 21.0234 27.1212 21.0234 27.2677C21.0234 27.4141 21.0133 27.5404 20.993 27.6717C20.7903 28.9091 19.6905 29.8434 18.4386 29.8434C17.1867 29.8434 16.0767 28.9091 15.8842 27.6717C15.8588 27.5404 15.8487 27.404 15.8487 27.2677ZM34.9715 27.2677C34.9715 27.1263 34.9816 26.9848 35.0019 26.8535C35.2046 25.6162 36.2994 24.6818 37.5563 24.6818C38.8133 24.6818 39.9131 25.6162 40.1108 26.8535C40.1311 26.9848 40.1412 27.1212 40.1412 27.2677C40.1412 27.4141 40.1311 27.5404 40.1108 27.6717C39.908 28.9091 38.8133 29.8434 37.5563 29.8434C36.2994 29.8434 35.1996 28.9091 35.0019 27.6717C34.9816 27.5404 34.9715 27.404 34.9715 27.2677ZM54.444 25.697C54.444 26.0202 54.2362 26.3232 53.9321 26.4394C53.846 26.4747 53.7446 26.4949 53.6432 26.4949H41.6211L41.5654 26.2576C41.1042 24.4242 39.457 23.1414 37.5563 23.1414C35.6557 23.1414 34.0136 24.4192 33.5473 26.2576L33.4915 26.4949H22.5034L22.4426 26.2576C21.9864 24.4242 20.3392 23.1414 18.4437 23.1414C16.5481 23.1414 14.8908 24.4192 14.4346 26.2576L14.3738 26.4949H2.35677C2.25541 26.4949 2.15404 26.4747 2.06281 26.4394C1.75364 26.3232 1.55091 26.0202 1.55091 25.697V9.90404H54.4491V25.697H54.444Z" fill="#333333"/>
<path d="M55.2245 8.36364H36.1676V3.76768C36.1676 1.69192 34.4697 0 32.3866 0H23.6083C21.5303 0 19.8324 1.69192 19.8324 3.76768V8.35859H0.775455C0.349715 8.35859 0 8.70202 0 9.13131V25.6919C0 26.2576 0.223007 26.8232 0.628473 27.2576L0.714635 27.3535V45.2222C0.714635 45.6465 1.05928 45.9949 1.48502 45.9949H54.5099C54.9407 45.9949 55.2854 45.6465 55.2854 45.2222V27.3535L55.3665 27.2576C55.7719 26.8232 56 26.2576 56 25.6919V9.13636C56 8.70707 55.6503 8.36364 55.2245 8.36364ZM21.3782 3.76768C21.3782 2.5404 22.3818 1.54545 23.6083 1.54545H32.3866C33.6182 1.54545 34.6167 2.53535 34.6167 3.76768V8.35859H21.3782V3.76768ZM53.7395 44.4495H2.26048V28.0303H14.3687L14.4295 28.2677C14.8908 30.101 16.538 31.3838 18.4386 31.3838C20.3392 31.3838 21.9814 30.1061 22.4476 28.2677L22.5034 28.0303H33.4915L33.5473 28.2677C34.0085 30.101 35.6557 31.3838 37.5563 31.3838C39.457 31.3838 41.0991 30.1061 41.5654 28.2677L41.6211 28.0303H53.7395V44.4495ZM15.8487 27.2677C15.8487 27.1263 15.8588 26.9848 15.8842 26.8535C16.0767 25.6162 17.1816 24.6818 18.4386 24.6818C19.6955 24.6818 20.7954 25.6162 20.993 26.8535C21.0133 26.9848 21.0234 27.1212 21.0234 27.2677C21.0234 27.4141 21.0133 27.5404 20.993 27.6717C20.7903 28.9091 19.6905 29.8434 18.4386 29.8434C17.1867 29.8434 16.0767 28.9091 15.8842 27.6717C15.8588 27.5404 15.8487 27.404 15.8487 27.2677ZM34.9715 27.2677C34.9715 27.1263 34.9816 26.9848 35.0019 26.8535C35.2046 25.6162 36.2994 24.6818 37.5563 24.6818C38.8133 24.6818 39.9131 25.6162 40.1108 26.8535C40.1311 26.9848 40.1412 27.1212 40.1412 27.2677C40.1412 27.4141 40.1311 27.5404 40.1108 27.6717C39.908 28.9091 38.8133 29.8434 37.5563 29.8434C36.2994 29.8434 35.1996 28.9091 35.0019 27.6717C34.9816 27.5404 34.9715 27.404 34.9715 27.2677ZM54.444 25.697C54.444 26.0202 54.2362 26.3232 53.9321 26.4394C53.846 26.4747 53.7446 26.4949 53.6432 26.4949H41.6211L41.5654 26.2576C41.1042 24.4242 39.457 23.1414 37.5563 23.1414C35.6557 23.1414 34.0136 24.4192 33.5473 26.2576L33.4915 26.4949H22.5034L22.4426 26.2576C21.9864 24.4242 20.3392 23.1414 18.4437 23.1414C16.5481 23.1414 14.8908 24.4192 14.4346 26.2576L14.3738 26.4949H2.35677C2.25541 26.4949 2.15404 26.4747 2.06281 26.4394C1.75364 26.3232 1.55091 26.0202 1.55091 25.697V9.90404H54.4491V25.697H54.444Z" fill="#333333"/>
<path d="M52.6751 30.6616C52.6751 31.0858 52.3305 31.4343 51.9048 31.4343H43.2632C42.8375 31.4343 42.4878 31.0858 42.4878 30.6616C42.4878 30.2374 42.8375 29.8939 43.2632 29.8939H51.9048C52.3305 29.8939 52.6751 30.2374 52.6751 30.6616Z" fill="#333333"/>
<path d="M13.426 30.6616C13.426 31.0858 13.0763 31.4343 12.6505 31.4343H4.0141C3.58329 31.4343 3.23865 31.0858 3.23865 30.6616C3.23865 30.2374 3.58329 29.8939 4.0141 29.8939H12.6505C13.0763 29.8939 13.426 30.2374 13.426 30.6616Z" fill="#333333"/>
</g>
<defs>
<clipPath id="clip0_56_5550">
<rect width="56" height="46" fill="white"/>
</clipPath>
</defs>
</svg>
